<?xml version="1.0" encoding="UTF-8"?>
<svg width="56px" height="56px" viewBox="0 0 56 56" version="1.1" xmlns="http://www.w3.org/2000/svg" xmlns:xlink="http://www.w3.org/1999/xlink">
    <!-- Generator: sketchtool 49.3 (51167) - http://www.bohemiancoding.com/sketch -->
    <title>17DCA7BF-D609-4BE6-9FFD-C4C0EFB23B4E@1x</title>
    <desc>Created with sketchtool.</desc>
    <defs>
        <polygon id="path-1" points="0.000486760563 46.7830986 46.097929 46.7830986 46.097929 0.359648451 0.000486760563 0.359648451"></polygon>
    </defs>
    <g id="Visuhealth-Android" stroke="none" stroke-width="1" fill="none" fill-rule="evenodd">
        <g id="Login" transform="translate(-28.000000, -54.000000)">
            <g id="ZeissLogo" transform="translate(28.000000, 54.000000)">
                <rect id="Rectangle-3" stroke="#979797" stroke-width="0.01" x="0.005" y="0.005" width="55.99" height="55.99"></rect>
                <g id="Group-2" transform="translate(5.000000, 5.000000)">
                    <g id="Group-3" transform="translate(0.000000, 0.180710)">
                        <mask id="mask-2" fill="white">
                            <use xlink:href="#path-1"></use>
                        </mask>
                        <g id="Clip-2"></g>
                        <path d="M45.5968755,45.9261797 C38.6089923,42.7896781 30.9590359,41.0624506 22.7998849,41.0624506 C14.6455489,41.0624506 7.22310496,42.8231468 0.000486760563,45.9596485 L0.000486760563,0.359648451 L45.6004868,0.359648451 L45.5968755,45.9261797 Z" id="Fill-1" fill="#141E8B" mask="url(#mask-2)"></path>
                    </g>
                    <path d="M5.29960563,14.5131854 C3.13230423,14.5131854 2.94976901,16.3604417 2.94976901,16.3604417 L2.43380282,16.3604417 L2.43380282,13.9266389 L9.99806197,13.9266389 C9.99806197,13.9266389 10.0637746,16.2192811 7.67012958,18.8757769 C7.67012958,18.8757769 5.39695775,21.2280473 5.33976338,22.4449487 L6.6515831,22.4449487 C8.53169577,22.4449487 8.7264,20.0111459 8.7264,20.0111459 L9.73521127,20.0111459 L9.73521127,23.6618501 L1.54789859,23.6618501 C1.54789859,23.6618501 1.24245634,21.2645544 4.10825915,18.2807121 C4.10825915,18.2807121 5.8739831,16.1888586 6.28042817,14.6397431 L5.29960563,14.5131854 Z" id="Fill-4" fill="#FFFFFF"></path>
                    <path d="M25.5549296,23.6613634 L25.5549296,22.444462 L25.6279437,22.444462 C25.1862085,22.444462 24.3380282,22.3653634 24.3380282,21.9211944 L24.3380282,15.6565859 C24.3380282,15.2185014 25.1862085,15.1430535 25.6279437,15.1430535 L25.5549296,15.1430535 L25.5549296,13.9261521 L20.6873239,13.9261521 L20.6873239,15.1430535 L20.7615549,15.1430535 C21.2118085,15.1430535 21.9042254,15.2185014 21.9042254,15.6565859 L21.9042254,21.9211944 C21.9042254,22.3653634 21.2118085,22.444462 20.7615549,22.444462 L20.6873239,22.444462 L20.6873239,23.6613634 L25.5549296,23.6613634 Z" id="Fill-6" fill="#FFFFFF"></path>
                    <path d="M19.4704225,23.6613634 L19.4704225,20.0106592 L18.3691268,20.0106592 C18.3691268,20.0106592 18.1707718,22.444462 16.2845746,22.444462 L15.8197183,22.444462 L15.8197183,20.0106592 L15.5921577,20.0106592 C16.0424113,20.0106592 15.8197183,19.6845296 15.8197183,20.1372169 L15.8197183,20.0106592 L17.0366197,20.0106592 L17.0366197,16.3599549 L15.8197183,16.3599549 L15.8197183,17.4502986 C15.8197183,17.9029859 16.0424113,18.7937577 15.5921577,18.7937577 L15.8197183,18.7937577 L15.8197183,15.1430535 L16.2845746,15.1430535 C18.1707718,15.1430535 18.3691268,16.3599549 18.3691268,16.3599549 L19.4704225,16.3599549 L19.4704225,13.9261521 L10.9521127,13.9261521 L10.9521127,15.1430535 L11.1711549,15.1430535 C11.6165408,15.1430535 12.1690141,15.2270197 12.1690141,15.6651042 L12.1690141,21.9175437 C12.1690141,22.3617127 11.6165408,22.444462 11.1711549,22.444462 L10.9521127,22.444462 L10.9521127,23.6613634 L19.4704225,23.6613634 Z" id="Fill-8" fill="#FFFFFF"></path>
                    <path d="M31.1153172,14.5131854 C33.2935707,14.5131854 33.4542017,16.3604417 33.4542017,16.3604417 L35.2905059,16.3604417 L35.2905059,13.9266389 L26.7807144,13.9266389 C26.7807144,13.9266389 25.5577285,15.307822 28.7496608,18.8757769 C28.7496608,18.8757769 31.0094468,21.2280473 31.0715087,22.4449487 L29.7633397,22.4449487 C27.883227,22.4449487 27.6848721,20.0111459 27.6848721,20.0111459 L26.7721961,20.0111459 L26.7721961,23.6618501 L34.3912158,23.6618501 C34.3912158,23.6618501 35.8101228,22.2064361 32.2981454,18.2807121 C32.2981454,18.2807121 30.4606242,16.2667403 30.1308439,14.6397431 L31.1153172,14.5131854 Z" id="Fill-10" fill="#FFFFFF"></path>
                    <path d="M40.3170389,14.5131854 C42.4806896,14.5131854 42.6571403,16.3604417 42.6571403,16.3604417 L43.808329,16.3604417 L43.808329,13.9266389 L35.9727008,13.9266389 C35.9727008,13.9266389 34.748498,15.307822 37.9404304,18.8757769 C37.9404304,18.8757769 40.2111685,21.2280473 40.2720135,22.4449487 L38.9662783,22.4449487 C37.0849487,22.4449487 36.8865938,20.0111459 36.8865938,20.0111459 L35.2900192,20.0111459 L35.2900192,23.6618501 L43.5941544,23.6618501 C43.5941544,23.6618501 45.0008924,22.2064361 41.499867,18.2807121 C41.499867,18.2807121 39.6635628,16.2667403 39.3325656,14.6397431 L40.3170389,14.5131854 Z" id="Fill-12" fill="#FFFFFF"></path>
                </g>
            </g>
        </g>
    </g>
</svg>