<?xml version="1.0" encoding="UTF-8"?>
<svg width="68px" height="68px" viewBox="0 0 68 68" version="1.1" xmlns="http://www.w3.org/2000/svg" xmlns:xlink="http://www.w3.org/1999/xlink">
    <!-- Generator: sketchtool 49.3 (51167) - http://www.bohemiancoding.com/sketch -->
    <title>7D1AC096-588B-49C0-AAA4-48FBCEA3895E@1x</title>
    <desc>Created with sketchtool.</desc>
    <defs></defs>
    <g id="Visuhealth-Android" stroke="none" stroke-width="1" fill="none" fill-rule="evenodd">
        <g id="CaseDetails-Add" transform="translate(-28.000000, -342.000000)">
            <g id="Camera1" transform="translate(28.000000, 342.000000)">
                <g id="Camera">
                    <rect id="Rectangle-24" stroke="#979797" stroke-width="0.01" x="0.005" y="0.005" width="67.99" height="67.99"></rect>
                    <circle id="Oval-9" fill="#EBF4FB" cx="34" cy="34" r="32"></circle>
                    <circle id="Oval" fill="#008BD0" cx="34" cy="34" r="4"></circle>
                    <path d="M30.25,21.5 L27.9625,24 L24,24 C22.625,24 21.5,25.125 21.5,26.5 L21.5,41.5 C21.5,42.875 22.625,44 24,44 L44,44 C45.375,44 46.5,42.875 46.5,41.5 L46.5,26.5 C46.5,25.125 45.375,24 44,24 L40.0375,24 L37.75,21.5 L30.25,21.5 L30.25,21.5 Z M34,40.25 C30.55,40.25 27.75,37.45 27.75,34 C27.75,30.55 30.55,27.75 34,27.75 C37.45,27.75 40.25,30.55 40.25,34 C40.25,37.45 37.45,40.25 34,40.25 L34,40.25 Z" id="Shape" fill="#008BD0"></path>
                </g>
            </g>
        </g>
    </g>
</svg>