<?xml version="1.0" encoding="UTF-8"?>
<svg width="68px" height="68px" viewBox="0 0 68 68" version="1.1" xmlns="http://www.w3.org/2000/svg" xmlns:xlink="http://www.w3.org/1999/xlink">
    <!-- Generator: sketchtool 49.3 (51167) - http://www.bohemiancoding.com/sketch -->
    <title>EE7DAF78-9F88-4F9B-A129-1C976EBFB6A3@1x</title>
    <desc>Created with sketchtool.</desc>
    <defs></defs>
    <g id="Visuhealth-Android" stroke="none" stroke-width="1" fill="none" fill-rule="evenodd">
        <g id="CaseDetails-Add" transform="translate(-265.000000, -342.000000)">
            <g id="D1" transform="translate(265.000000, 342.000000)">
                <g id="Docs">
                    <circle id="Oval-9" fill="#EBF4FB" cx="34" cy="34" r="32"></circle>
                    <g id="ic_description" transform="translate(26.000000, 24.000000)" fill="#008BD0">
                        <path d="M10,0 L2,0 C0.9,0 0.01,0.9 0.01,2 L0,18 C0,19.1 0.89,20 1.99,20 L14,20 C15.1,20 16,19.1 16,18 L16,6 L10,0 L10,0 Z M12,16 L4,16 L4,14 L12,14 L12,16 L12,16 Z M12,12 L4,12 L4,10 L12,10 L12,12 L12,12 Z M9,7 L9,1.5 L14.5,7 L9,7 L9,7 Z" id="Shape"></path>
                    </g>
                    <rect id="Rectangle-24" stroke="#979797" stroke-width="0.01" x="0.005" y="0.005" width="67.99" height="67.99"></rect>
                </g>
            </g>
        </g>
    </g>
</svg>