<?xml version="1.0" encoding="UTF-8"?>
<svg width="68px" height="68px" viewBox="0 0 68 68" version="1.1" xmlns="http://www.w3.org/2000/svg" xmlns:xlink="http://www.w3.org/1999/xlink">
    <!-- Generator: sketchtool 49.3 (51167) - http://www.bohemiancoding.com/sketch -->
    <title>865AA2A5-1728-40E2-8796-34B3E676AE0D@1x</title>
    <desc>Created with sketchtool.</desc>
    <defs></defs>
    <g id="Visuhealth-Android" stroke="none" stroke-width="1" fill="none" fill-rule="evenodd">
        <g id="CaseDetails-Add" transform="translate(-146.000000, -342.000000)">
            <g id="G1" transform="translate(146.000000, 342.000000)">
                <g id="Gallery">
                    <circle id="Oval-9" fill="#EBF4FB" cx="34" cy="34" r="32"></circle>
                    <g transform="translate(22.000000, 22.000000)" fill="#008BD0" id="Shape">
                        <path d="M24,21.3333333 L24,2.66666667 C24,1.2 22.8,0 21.3333333,0 L2.66666667,0 C1.2,0 0,1.2 0,2.66666667 L0,21.3333333 C0,22.8 1.2,24 2.66666667,24 L21.3333333,24 C22.8,24 24,22.8 24,21.3333333 L24,21.3333333 Z M7.33333333,14 L10.6666667,18.0133333 L15.3333333,12 L21.3333333,20 L2.66666667,20 L7.33333333,14 L7.33333333,14 Z"></path>
                    </g>
                    <rect id="Rectangle-24" stroke="#979797" stroke-width="0.01" x="0.005" y="0.005" width="67.99" height="67.99"></rect>
                </g>
            </g>
        </g>
    </g>
</svg>