<?xml version="1.0" encoding="UTF-8"?>
<svg width="68px" height="68px" viewBox="0 0 68 68" version="1.1" xmlns="http://www.w3.org/2000/svg" xmlns:xlink="http://www.w3.org/1999/xlink">
    <!-- Generator: sketchtool 49.3 (51167) - http://www.bohemiancoding.com/sketch -->
    <title>6E962A52-BC7D-40BD-AB0B-8374BF285CA3@1x</title>
    <desc>Created with sketchtool.</desc>
    <defs>
        <polygon id="path-1" points="0.000226988516 21.8161185 21.4966069 21.8161185 21.4966069 0.167712987 0.000226988516 0.167712987"></polygon>
    </defs>
    <g id="Visuhealth-Android" stroke="none" stroke-width="1" fill="none" fill-rule="evenodd">
        <g id="CaseDetails-Add" transform="translate(-28.000000, -464.000000)">
            <g id="V1" transform="translate(28.000000, 464.000000)">
                <g id="Zeiss">
                    <circle id="Oval-9" fill="#EBF4FB" cx="34" cy="34" r="32"></circle>
                    <g id="ZeissLogo" transform="translate(23.000000, 23.000000)">
                        <g id="Group-3" transform="translate(0.000000, 0.084269)">
                            <mask id="mask-2" fill="white">
                                <use xlink:href="#path-1"></use>
                            </mask>
                            <g id="Clip-2"></g>
                            <path d="M21.2629532,21.4165159 C18.0043301,19.9538875 14.4369658,19.1484385 10.6321514,19.1484385 C6.82958247,19.1484385 3.36831288,19.9694948 0.000226988516,21.4321232 L0.000226988516,0.167712987 L21.2646372,0.167712987 L21.2629532,21.4165159 Z" id="Fill-1" fill="#141E8B" mask="url(#mask-2)"></path>
                        </g>
                        <path d="M2.47133746,6.76785806 C1.4606711,6.76785806 1.37555041,7.62927948 1.37555041,7.62927948 L1.13494258,7.62927948 L1.13494258,6.4943369 L4.66234411,6.4943369 C4.66234411,6.4943369 4.69298756,7.56345281 3.57677154,8.80224263 C3.57677154,8.80224263 2.51673517,9.89916463 2.49006402,10.4666359 L3.10179807,10.4666359 C3.97854121,10.4666359 4.06933662,9.33169334 4.06933662,9.33169334 L4.53977031,9.33169334 L4.53977031,11.0341072 L0.72182348,11.0341072 C0.72182348,11.0341072 0.579388186,9.91618877 1.91578307,8.52474917 C1.91578307,8.52474917 2.73918391,7.54926602 2.92871932,6.82687507 L2.47133746,6.76785806 Z" id="Fill-4" fill="#FFFFFF"></path>
                        <path d="M11.9168971,11.0338802 L11.9168971,10.4664089 L11.9509454,10.4664089 C11.7449533,10.4664089 11.3494258,10.4295233 11.3494258,10.2223963 L11.3494258,7.30105408 C11.3494258,7.09676442 11.7449533,7.0615812 11.9509454,7.0615812 L11.9168971,7.0615812 L11.9168971,6.49410991 L9.64701192,6.49410991 L9.64701192,7.0615812 L9.68162767,7.0615812 C9.89159204,7.0615812 10.2144832,7.09676442 10.2144832,7.30105408 L10.2144832,10.2223963 C10.2144832,10.4295233 9.89159204,10.4664089 9.68162767,10.4664089 L9.64701192,10.4664089 L9.64701192,11.0338802 L11.9168971,11.0338802 Z" id="Fill-6" fill="#FFFFFF"></path>
                        <path d="M9.07954063,11.0338802 L9.07954063,9.33146635 L8.56597911,9.33146635 C8.56597911,9.33146635 8.47348129,10.4664089 7.59390079,10.4664089 L7.37712676,10.4664089 L7.37712676,9.33146635 L7.27100963,9.33146635 C7.48097401,9.33146635 7.37712676,9.17938405 7.37712676,9.39048337 L7.37712676,9.33146635 L7.94459805,9.33146635 L7.94459805,7.62905249 L7.37712676,7.62905249 L7.37712676,8.13750676 C7.37712676,8.34860608 7.48097401,8.76399507 7.27100963,8.76399507 L7.37712676,8.76399507 L7.37712676,7.0615812 L7.59390079,7.0615812 C8.47348129,7.0615812 8.56597911,7.62905249 8.56597911,7.62905249 L9.07954063,7.62905249 L9.07954063,6.49410991 L5.1072416,6.49410991 L5.1072416,7.0615812 L5.20938644,7.0615812 C5.41708093,7.0615812 5.67471289,7.10073672 5.67471289,7.30502638 L5.67471289,10.2206939 C5.67471289,10.4278209 5.41708093,10.4664089 5.20938644,10.4664089 L5.1072416,10.4664089 L5.1072416,11.0338802 L9.07954063,11.0338802 Z" id="Fill-8" fill="#FFFFFF"></path>
                        <path d="M14.5098436,6.76785806 C15.5256172,6.76785806 15.6005235,7.62927948 15.6005235,7.62927948 L16.4568376,7.62927948 L16.4568376,6.4943369 L12.4885109,6.4943369 C12.4885109,6.4943369 11.9182023,7.13841681 13.4066795,8.80224263 C13.4066795,8.80224263 14.4604736,9.89916463 14.4894147,10.4666359 L13.879383,10.4666359 C13.0026399,10.4666359 12.9101421,9.33169334 12.9101421,9.33169334 L12.4845386,9.33169334 L12.4845386,11.0341072 L16.0374763,11.0341072 C16.0374763,11.0341072 16.6991479,10.3554115 15.0614257,8.52474917 C15.0614257,8.52474917 14.2045441,7.58558419 14.0507594,6.82687507 L14.5098436,6.76785806 Z" id="Fill-10" fill="#FFFFFF"></path>
                        <path d="M18.8008345,6.76785806 C19.8097985,6.76785806 19.8920818,7.62927948 19.8920818,7.62927948 L20.4289097,7.62927948 L20.4289097,6.4943369 L16.774962,6.4943369 C16.774962,6.4943369 16.2040859,7.13841681 17.6925631,8.80224263 C17.6925631,8.80224263 18.7514645,9.89916463 18.7798381,10.4666359 L18.1709414,10.4666359 C17.2936308,10.4666359 17.201133,9.33169334 17.201133,9.33169334 L16.4566106,9.33169334 L16.4566106,11.0341072 L20.3290347,11.0341072 C20.3290347,11.0341072 20.9850315,10.3554115 19.3524166,8.52474917 C19.3524166,8.52474917 18.4961025,7.58558419 18.3417503,6.82687507 L18.8008345,6.76785806 Z" id="Fill-12" fill="#FFFFFF"></path>
                    </g>
                    <rect id="Rectangle-24" stroke="#979797" stroke-width="0.01" x="0.005" y="0.005" width="67.99" height="67.99"></rect>
                </g>
            </g>
        </g>
    </g>
</svg>