<?xml version="1.0" encoding="UTF-8"?>
<svg width="18px" height="18px" viewBox="0 0 18 18" version="1.1" xmlns="http://www.w3.org/2000/svg" xmlns:xlink="http://www.w3.org/1999/xlink">
    <!-- Generator: sketchtool 49.3 (51167) - http://www.bohemiancoding.com/sketch -->
    <title>C9C75FCA-8F0A-4040-8D7E-9CDF1FC1FCE0@1x</title>
    <desc>Created with sketchtool.</desc>
    <defs></defs>
    <g id="Visuhealth-Android" stroke="none" stroke-width="1" fill="none" fill-rule="evenodd" opacity="0.8">
        <g id="CaseLog-Drop-Down" transform="translate(-239.000000, -43.000000)" fill="#000000">
            <g id="AppBar">
                <g id="SearchDark" transform="translate(239.000000, 43.000000)">
                    <path d="M12.502,6.491 L11.708,6.491 L11.432,6.765 C12.407,7.902 13,9.376 13,10.991 C13,14.581 10.09,17.491 6.5,17.491 C2.91,17.491 0,14.581 0,10.991 C0,7.401 2.91,4.491 6.5,4.491 C8.115,4.491 9.588,5.083 10.725,6.057 L11.001,5.783 L11.001,4.991 L15.999,0 L17.49,1.491 L12.502,6.491 L12.502,6.491 Z M6.5,6.491 C4.014,6.491 2,8.505 2,10.991 C2,13.476 4.014,15.491 6.5,15.491 C8.985,15.491 11,13.476 11,10.991 C11,8.505 8.985,6.491 6.5,6.491 L6.5,6.491 Z" id="Shape" transform="translate(8.745000, 8.745500) scale(1, -1) translate(-8.745000, -8.745500) "></path>
                </g>
            </g>
        </g>
    </g>
</svg>