<?xml version="1.0" encoding="UTF-8"?>
<svg width="30px" height="27px" viewBox="0 0 30 27" version="1.1" xmlns="http://www.w3.org/2000/svg" xmlns:xlink="http://www.w3.org/1999/xlink">
    <!-- Generator: sketchtool 49.3 (51167) - http://www.bohemiancoding.com/sketch -->
    <title>81FE1B45-CBEF-49CA-9439-0BE20C23B141@1x</title>
    <desc>Created with sketchtool.</desc>
    <defs></defs>
    <g id="Visuhealth-Android" stroke="none" stroke-width="1" fill="none" fill-rule="evenodd">
        <g id="New-User-2" transform="translate(-41.000000, -565.000000)">
            <g id="Choose">
                <g id="Group-3-Copy" transform="translate(20.000000, 548.000000)">
                    <g id="CameraBlue" transform="translate(18.000000, 14.000000)">
                        <polygon id="Bounds" points="0 0 36 0 36 36 0 36"></polygon>
                        <circle id="Oval" fill="#008BD0" cx="18" cy="18" r="4.8"></circle>
                        <path d="M13.5,3 L10.755,6 L6,6 C4.35,6 3,7.35 3,9 L3,27 C3,28.65 4.35,30 6,30 L30,30 C31.65,30 33,28.65 33,27 L33,9 C33,7.35 31.65,6 30,6 L25.245,6 L22.5,3 L13.5,3 L13.5,3 Z M18,25.5 C13.86,25.5 10.5,22.14 10.5,18 C10.5,13.86 13.86,10.5 18,10.5 C22.14,10.5 25.5,13.86 25.5,18 C25.5,22.14 22.14,25.5 18,25.5 L18,25.5 Z" id="Shape" fill="#008BD0"></path>
                    </g>
                </g>
            </g>
        </g>
    </g>
</svg>