<?xml version="1.0" encoding="UTF-8"?>
<svg width="38px" height="38px" viewBox="0 0 38 38" version="1.1" xmlns="http://www.w3.org/2000/svg" xmlns:xlink="http://www.w3.org/1999/xlink">
    <!-- Generator: sketchtool 49.3 (51167) - http://www.bohemiancoding.com/sketch -->
    <title>1462BEB8-60BB-44EA-BAB5-4045E47C2817@1x</title>
    <desc>Created with sketchtool.</desc>
    <defs></defs>
    <g id="Visuhealth-Android" stroke="none" stroke-width="1" fill="none" fill-rule="evenodd">
        <g id="New-User-2" transform="translate(-37.000000, -481.000000)">
            <g id="Choose">
                <g id="Group-3" transform="translate(20.000000, 468.000000)">
                    <g id="ImageGallery" transform="translate(18.000000, 14.000000)">
                        <polygon id="Bounds" stroke="#979797" stroke-width="0.01" points="0 0 36 0 36 36 0 36"></polygon>
                        <path d="M31.5,28.5 L31.5,7.5 C31.5,5.85 30.15,4.5 28.5,4.5 L7.5,4.5 C5.85,4.5 4.5,5.85 4.5,7.5 L4.5,28.5 C4.5,30.15 5.85,31.5 7.5,31.5 L28.5,31.5 C30.15,31.5 31.5,30.15 31.5,28.5 L31.5,28.5 Z M12.75,20.25 L16.5,24.765 L21.75,18 L28.5,27 L7.5,27 L12.75,20.25 L12.75,20.25 Z" id="Shape" fill="#008BD0"></path>
                    </g>
                </g>
            </g>
        </g>
    </g>
</svg>