<?xml version="1.0" encoding="UTF-8"?>
<svg width="26px" height="26px" viewBox="0 0 26 26" version="1.1" xmlns="http://www.w3.org/2000/svg" xmlns:xlink="http://www.w3.org/1999/xlink">
    <!-- Generator: sketchtool 49.3 (51167) - http://www.bohemiancoding.com/sketch -->
    <title>FEDA40E5-3B12-4C09-87F2-D2F3BC8FC854@1x</title>
    <desc>Created with sketchtool.</desc>
    <defs></defs>
    <g id="Visuhealth-Android" stroke="none" stroke-width="1" fill="none" fill-rule="evenodd">
        <g id="Menu-Overlay" transform="translate(-16.000000, -251.000000)">
            <g id="Group-Copy" transform="translate(0.000000, 231.000000)">
                <g id="Connections" transform="translate(17.000000, 21.000000)">
                    <polygon id="Bounds" stroke="#979797" stroke-width="0.01" points="0 0 24 0 24 24 0 24"></polygon>
                    <path d="M16,11 C17.66,11 18.99,9.66 18.99,8 C18.99,6.34 17.66,5 16,5 C14.34,5 13,6.34 13,8 C13,9.66 14.34,11 16,11 L16,11 Z M8,11 C9.66,11 10.99,9.66 10.99,8 C10.99,6.34 9.66,5 8,5 C6.34,5 5,6.34 5,8 C5,9.66 6.34,11 8,11 L8,11 Z M8,13 C5.67,13 1,14.17 1,16.5 L1,19 L15,19 L15,16.5 C15,14.17 10.33,13 8,13 L8,13 Z M16,13 C15.71,13 15.38,13.02 15.03,13.05 C16.19,13.89 17,15.02 17,16.5 L17,19 L23,19 L23,16.5 C23,14.17 18.33,13 16,13 L16,13 Z" id="Shape" fill-opacity="0.7" fill="#000000"></path>
                </g>
            </g>
        </g>
    </g>
</svg>