<?xml version="1.0" encoding="UTF-8"?>
<svg width="26px" height="26px" viewBox="0 0 26 26" version="1.1" xmlns="http://www.w3.org/2000/svg" xmlns:xlink="http://www.w3.org/1999/xlink">
    <!-- Generator: sketchtool 49.3 (51167) - http://www.bohemiancoding.com/sketch -->
    <title>75B0818C-166B-40FB-8262-08937A4A7D28@1x</title>
    <desc>Created with sketchtool.</desc>
    <defs></defs>
    <g id="Visuhealth-Android" stroke="none" stroke-width="1" fill="none" fill-rule="evenodd">
        <g id="Menu-Overlay" transform="translate(-16.000000, -185.000000)">
            <g id="Group" transform="translate(0.000000, 165.000000)">
                <g id="CaseLog" transform="translate(17.000000, 21.000000)">
                    <polygon id="Bounds" stroke="#979797" stroke-width="0.01" points="0 0 24 0 24 24 0 24"></polygon>
                    <path d="M4,10.5 C3.17,10.5 2.5,11.17 2.5,12 C2.5,12.83 3.17,13.5 4,13.5 C4.83,13.5 5.5,12.83 5.5,12 C5.5,11.17 4.83,10.5 4,10.5 L4,10.5 Z M4,4.5 C3.17,4.5 2.5,5.17 2.5,6 C2.5,6.83 3.17,7.5 4,7.5 C4.83,7.5 5.5,6.83 5.5,6 C5.5,5.17 4.83,4.5 4,4.5 L4,4.5 Z M4,16.67 C3.26,16.67 2.67,17.27 2.67,18 C2.67,18.73 3.27,19.33 4,19.33 C4.73,19.33 5.33,18.73 5.33,18 C5.33,17.27 4.74,16.67 4,16.67 L4,16.67 Z M7,19 L21,19 L21,17 L7,17 L7,19 L7,19 Z M7,13 L21,13 L21,11 L7,11 L7,13 L7,13 Z M7,5 L7,7 L21,7 L21,5 L7,5 L7,5 Z" id="Shape" fill-opacity="0.7" fill="#000000"></path>
                </g>
            </g>
        </g>
    </g>
</svg>