<?xml version="1.0" encoding="UTF-8"?>
<svg width="26px" height="26px" viewBox="0 0 26 26" version="1.1" xmlns="http://www.w3.org/2000/svg" xmlns:xlink="http://www.w3.org/1999/xlink">
    <!-- Generator: sketchtool 49.3 (51167) - http://www.bohemiancoding.com/sketch -->
    <title>12B1F21B-7BC3-4571-AE54-D5C439C2DEC9@1x</title>
    <desc>Created with sketchtool.</desc>
    <defs></defs>
    <g id="Visuhealth-Android" stroke="none" stroke-width="1" fill="none" fill-rule="evenodd">
        <g id="Menu-Overlay" transform="translate(-15.000000, -315.000000)">
            <g id="Group-Copy-3" transform="translate(0.000000, 296.000000)">
                <g id="Invitations" transform="translate(16.000000, 20.000000)">
                    <rect id="Path" stroke="#979797" stroke-width="0.01" x="0" y="0" width="24" height="24"></rect>
                    <path d="M20,4 L4,4 C2.9,4 2.01,4.9 2.01,6 L2,18 C2,19.1 2.9,20 4,20 L20,20 C21.1,20 22,19.1 22,18 L22,6 C22,4.9 21.1,4 20,4 L20,4 Z M20,8 L12,13 L4,8 L4,6 L12,11 L20,6 L20,8 L20,8 Z" id="Shape" fill-opacity="0.7" fill="#000000"></path>
                </g>
            </g>
        </g>
    </g>
</svg>