<?xml version="1.0" encoding="UTF-8"?>
<svg width="26px" height="26px" viewBox="0 0 26 26" version="1.1" xmlns="http://www.w3.org/2000/svg" xmlns:xlink="http://www.w3.org/1999/xlink">
    <!-- Generator: sketchtool 49.3 (51167) - http://www.bohemiancoding.com/sketch -->
    <title>48D204E0-AB01-41B2-8AEE-F293544E6266@1x</title>
    <desc>Created with sketchtool.</desc>
    <defs></defs>
    <g id="Visuhealth-Android" stroke="none" stroke-width="1" fill="none" fill-rule="evenodd">
        <g id="Menu-Overlay" transform="translate(-15.000000, -382.000000)">
            <g id="Group-Copy-2" transform="translate(0.000000, 363.000000)">
                <g id="LogOut" transform="translate(16.000000, 20.000000)">
                    <rect id="Path" stroke="#979797" stroke-width="0.01" x="0" y="0" width="24" height="24"></rect>
                    <g id="Group-2" transform="translate(4.000000, 4.000000)" fill="#4C4C4C" fill-rule="nonzero">
                        <path d="M9.93890675,14.9565217 L1.06109325,14.9565217 L1.06109325,1.04347826 L9.93890675,1.04347826 L9.93890675,4.8 C9.93890675,5.07826087 10.1864952,5.32173913 10.4694534,5.32173913 C10.7524116,5.32173913 11,5.07826087 11,4.8 L11,0 L0,0 L0,16 L11,16 L11,11.2 C11,10.9217391 10.7524116,10.6782609 10.4694534,10.6782609 C10.1864952,10.6782609 9.93890675,10.9217391 9.93890675,11.2 L9.93890675,14.9565217 Z" id="Shape"></path>
                        <path d="M12.359116,4.12857143 C12.160221,4.3 12.160221,4.55714286 12.359116,4.72857143 L15.0773481,7.07142857 L5.49723757,7.07142857 C5.2320442,7.07142857 5,7.27142857 5,7.5 C5,7.72857143 5.2320442,7.92857143 5.49723757,7.92857143 L15.1104972,7.92857143 L12.3922652,10.2714286 C12.1933702,10.4428571 12.1933702,10.7 12.3922652,10.8714286 C12.5911602,11.0428571 12.8895028,11.0428571 13.0883978,10.8714286 L17,7.5 L13.0883978,4.12857143 C12.8895028,3.95714286 12.558011,3.95714286 12.359116,4.12857143 Z" id="Shape"></path>
                    </g>
                </g>
            </g>
        </g>
    </g>
</svg>