<?xml version="1.0" encoding="UTF-8"?>
<svg width="24px" height="24px" viewBox="0 0 24 24" version="1.1" xmlns="http://www.w3.org/2000/svg" xmlns:xlink="http://www.w3.org/1999/xlink">
    <!-- Generator: sketchtool 49.3 (51167) - http://www.bohemiancoding.com/sketch -->
    <title>904CBEA5-DA11-4EE1-B478-FD19EA8E431B@1x</title>
    <desc>Created with sketchtool.</desc>
    <defs></defs>
    <g id="Visuhealth-Android" stroke="none" stroke-width="1" fill="none" fill-rule="evenodd">
        <g id="CaseDetails" transform="translate(-239.000000, -1257.000000)">
            <g id="Chatbox" transform="translate(0.000000, 1233.000000)">
                <g id="Mic" transform="translate(239.000000, 24.000000)">
                    <rect id="Rectangle-6" stroke="#979797" stroke-width="0.01" x="0.005" y="0.005" width="23.99" height="23.99"></rect>
                    <path d="M12,15 C13.66,15 14.99,13.66 14.99,12 L15,6 C15,4.34 13.66,3 12,3 C10.34,3 9,4.34 9,6 L9,12 C9,13.66 10.34,15 12,15 L12,15 Z M17.3,12 C17.3,15 14.76,17.1 12,17.1 C9.24,17.1 6.7,15 6.7,12 L5,12 C5,15.41 7.72,18.23 11,18.72 L11,22 L13,22 L13,18.72 C16.28,18.24 19,15.42 19,12 L17.3,12 L17.3,12 Z" id="Shape" fill="#9A9B9C"></path>
                </g>
            </g>
        </g>
    </g>
</svg>